<svg width="16" height="16" viewBox="0 0 16 16" fill="none" xmlns="http://www.w3.org/2000/svg">
<path fill-rule="evenodd" clip-rule="evenodd" d="M2.98033 8.66414e-06C2.98698 1.28365e-05 2.99354 1.69492e-05 3.00002 1.69492e-05L12.6719 1.5161e-05C13.1437 -1.69659e-05 13.5518 -4.46811e-05 13.8558 0.0431671C14.1507 0.085069 14.562 0.195047 14.7377 0.610837C14.9134 1.02663 14.7055 1.39824 14.53 1.63886C14.349 1.88699 14.0645 2.17956 13.7357 2.51778L11.5056 4.81154C11.1757 5.15092 10.9636 5.37056 10.8279 5.55313C10.7008 5.72408 10.6864 5.80401 10.6864 5.85716C10.6864 5.91031 10.7008 5.99024 10.8279 6.16119C10.9636 6.34376 11.1757 6.5634 11.5056 6.90278L13.7356 9.19652C14.0645 9.53474 14.349 9.82732 14.53 10.0755C14.7055 10.3161 14.9134 10.6877 14.7377 11.1035C14.562 11.5193 14.1507 11.6292 13.8558 11.6712C13.5518 11.7144 13.1437 11.7143 12.6719 11.7143L3.00002 11.7143V15.5C3.00002 15.7762 2.77616 16 2.50002 16C2.22387 16 2.00002 15.7762 2.00002 15.5V1.00002C2.00002 0.993544 2.00001 0.986977 2.00001 0.980325C1.99995 0.880388 1.99987 0.761403 2.01363 0.659075C2.03024 0.535552 2.07469 0.364683 2.21969 0.219687C2.36468 0.0746907 2.53555 0.0302357 2.65908 0.0136285C2.7614 -0.000129201 2.88039 -5.4338e-05 2.98033 8.66414e-06Z" fill="white"/>
</svg>
